{
	"asset":{
		"generator":"Khronos glTF Blender I/O v4.3.47",
		"version":"2.0"
	},
	"extensionsUsed":[
		"KHR_materials_specular"
	],
	"scene":0,
	"scenes":[
		{
			"name":"Scene",
			"nodes":[
				0
			]
		}
	],
	"nodes":[
		{
			"mesh":0,
			"name":"Untitled",
			"rotation":[
				0.7071068286895752,
				0,
				0,
				0.7071068286895752
			],
			"translation":[
				0,
				-3.3983590602874756,
				0
			]
		}
	],
	"materials":[
		{
			"doubleSided":true,
			"extensions":{
				"KHR_materials_specular":{
					"specularFactor":0
				}
			},
			"name":"palette",
			"pbrMetallicRoughness":{
				"baseColorTexture":{
					"index":0
				},
				"metallicFactor":0
			}
		}
	],
	"meshes":[
		{
			"name":"Untitled",
			"primitives":[
				{
					"attributes":{
						"POSITION":0,
						"NORMAL":1,
						"TEXCOORD_0":2
					},
					"indices":3,
					"material":0
				}
			]
		}
	],
	"textures":[
		{
			"sampler":0,
			"source":0
		}
	],
	"images":[
		{
			"mimeType":"image/png",
			"name":"3x3x3",
			"uri":"3x3x3.png"
		}
	],
	"accessors":[
		{
			"bufferView":0,
			"componentType":5126,
			"count":2088,
			"max":[
				1.399999976158142,
				1.399999976158142,
				-0.5
			],
			"min":[
				-1.399999976158142,
				-1.399999976158142,
				-4
			],
			"type":"VEC3"
		},
		{
			"bufferView":1,
			"componentType":5126,
			"count":2088,
			"type":"VEC3"
		},
		{
			"bufferView":2,
			"componentType":5126,
			"count":2088,
			"type":"VEC2"
		},
		{
			"bufferView":3,
			"componentType":5123,
			"count":4314,
			"type":"SCALAR"
		}
	],
	"bufferViews":[
		{
			"buffer":0,
			"byteLength":25056,
			"byteOffset":0,
			"target":34962
		},
		{
			"buffer":0,
			"byteLength":25056,
			"byteOffset":25056,
			"target":34962
		},
		{
			"buffer":0,
			"byteLength":16704,
			"byteOffset":50112,
			"target":34962
		},
		{
			"buffer":0,
			"byteLength":8628,
			"byteOffset":66816,
			"target":34963
		}
	],
	"samplers":[
		{
			"magFilter":9729,
			"minFilter":9987
		}
	],
	"buffers":[
		{
			"byteLength":75444,
			"uri":"untitled.bin"
		}
	]
}
